HIERARCHY
ROOT hip
{
  OFFSET 0 0 0
  CHANNELS 6 Xposition Yposition Zposition Zrotation Yrotation Xrotation
  JOINT abdomen
  {
    OFFSET 0 20.6881 -0.73152
    CHANNELS 3 Zrotation Xrotation Yrotation
    JOINT chest
    {
      OFFSET 0 11.7043 -0.48768
      CHANNELS 3 Zrotation Xrotation Yrotation
      JOINT neck
      {
        OFFSET 0 22.1894 -2.19456
        CHANNELS 3 Zrotation Xrotation Yrotation
        JOINT head
        {
          OFFSET -0.24384 7.07133 1.2192
          CHANNELS 3 Zrotation Xrotation Yrotation
          JOINT leftEye
          {
            OFFSET 4.14528 8.04674 8.04672
            CHANNELS 3 Zrotation Xrotation Yrotation
            End Site
            {
              OFFSET 1 0 0
            }
          }
          JOINT rightEye
          {
            OFFSET -3.6576 8.04674 8.04672
            CHANNELS 3 Zrotation Xrotation Yrotation
            End Site
            {
              OFFSET 1 0 0
            }
          }
        }
      }
      JOINT rCollar
      {
        OFFSET -2.68224 19.2634 -4.8768
        CHANNELS 3 Zrotation Xrotation Yrotation
        JOINT rShldr
        {
          OFFSET -8.77824 -1.95073 1.46304
          CHANNELS 3 Zrotation Xrotation Yrotation
          JOINT rForeArm
          {
            OFFSET -28.1742 -1.7115 0.48768
            CHANNELS 3 Zrotation Xrotation Yrotation
            JOINT rHand
            {
              OFFSET -22.5879 0.773209 7.07136
              CHANNELS 3 Zrotation Xrotation Yrotation
              JOINT rThumb1
              {
                OFFSET -1.2192 -0.487915 3.41376
                CHANNELS 3 Zrotation Xrotation Yrotation
                JOINT rThumb2
                {
                  OFFSET -3.37035 -0.52449 3.41376
                  CHANNELS 3 Zrotation Xrotation Yrotation
                  End Site
                  {
                    OFFSET -1.78271 -1.18214 1.43049
                  }
                }
              }
              JOINT rIndex1
              {
                OFFSET -7.75947 0.938293 5.60832
                CHANNELS 3 Zrotation Xrotation Yrotation
                JOINT rIndex2
                {
                  OFFSET -2.54057 -0.884171 1.56538
                  CHANNELS 3 Zrotation Xrotation Yrotation
                  End Site
                  {
                    OFFSET -1.62519 -0.234802 1.16502
                  }
                }
              }
              JOINT rMid1
              {
                OFFSET -8.24714 1.18213 3.41376
                CHANNELS 3 Zrotation Xrotation Yrotation
                JOINT rMid2
                {
                  OFFSET -3.10165 -0.590103 1.0647
                  CHANNELS 3 Zrotation Xrotation Yrotation
                  End Site
                  {
                    OFFSET -2.48547 -0.328903 0.83742
                  }
                }
              }
              JOINT rRing1
              {
                OFFSET -8.82822 0.546677 1.51678
                CHANNELS 3 Zrotation Xrotation Yrotation
                JOINT rRing2
                {
                  OFFSET -2.60934 -0.819778 -0.0198488
                  CHANNELS 3 Zrotation Xrotation Yrotation
                  End Site
                  {
                    OFFSET -2.33842 -0.294052 0.168128
                  }
                }
              }
              JOINT rPinky1
              {
                OFFSET -8.27202 -0.0477905 -0.4584
                CHANNELS 3 Zrotation Xrotation Yrotation
                JOINT rPinky2
                {
                  OFFSET -1.82734 -0.647385 -0.700984
                  CHANNELS 3 Zrotation Xrotation Yrotation
                  End Site
                  {
                    OFFSET -1.69225 -0.51767 -0.607171
                  }
                }
              }
            }
          }
        }
      }
      JOINT lCollar
      {
        OFFSET 2.68224 19.2634 -4.8768
        CHANNELS 3 Zrotation Xrotation Yrotation
        JOINT lShldr
        {
          OFFSET 8.77824 -1.95073 1.46304
          CHANNELS 3 Zrotation Xrotation Yrotation
          JOINT lForeArm
          {
            OFFSET 28.1742 -1.7115 0.48768
            CHANNELS 3 Zrotation Xrotation Yrotation
            JOINT lHand
            {
              OFFSET 22.5879 0.773209 7.07136
              CHANNELS 3 Zrotation Xrotation Yrotation
              JOINT lThumb1
              {
                OFFSET 1.2192 -0.487915 3.41376
                CHANNELS 3 Zrotation Xrotation Yrotation
                JOINT lThumb2
                {
                  OFFSET 3.37035 -0.52449 3.41376
                  CHANNELS 3 Zrotation Xrotation Yrotation
                  End Site
                  {
                    OFFSET 1.78271 -1.18214 1.43049
                  }
                }
              }
              JOINT lIndex1
              {
                OFFSET 7.75947 0.938293 5.60832
                CHANNELS 3 Zrotation Xrotation Yrotation
                JOINT lIndex2
                {
                  OFFSET 2.54057 -0.884171 1.56538
                  CHANNELS 3 Zrotation Xrotation Yrotation
                  End Site
                  {
                    OFFSET 1.62519 -0.234802 1.16502
                  }
                }
              }
              JOINT lMid1
              {
                OFFSET 8.24714 1.18213 3.41376
                CHANNELS 3 Zrotation Xrotation Yrotation
                JOINT lMid2
                {
                  OFFSET 3.10165 -0.590103 1.0647
                  CHANNELS 3 Zrotation Xrotation Yrotation
                  End Site
                  {
                    OFFSET 2.48547 -0.328903 0.83742
                  }
                }
              }
              JOINT lRing1
              {
                OFFSET 8.82822 0.546677 1.51678
                CHANNELS 3 Zrotation Xrotation Yrotation
                JOINT lRing2
                {
                  OFFSET 2.60934 -0.819778 -0.0198488
                  CHANNELS 3 Zrotation Xrotation Yrotation
                  End Site
                  {
                    OFFSET 2.33842 -0.294052 0.168128
                  }
                }
              }
              JOINT lPinky1
              {
                OFFSET 8.27202 -0.0477905 -0.4584
                CHANNELS 3 Zrotation Xrotation Yrotation
                JOINT lPinky2
                {
                  OFFSET 1.82734 -0.647385 -0.700984
                  CHANNELS 3 Zrotation Xrotation Yrotation
                  End Site
                  {
                    OFFSET 1.69225 -0.51767 -0.607171
                  }
                }
              }
            }
          }
        }
      }
    }
  }
  JOINT rButtock
  {
    OFFSET -8.77824 4.35084 1.2192
    CHANNELS 3 Zrotation Xrotation Yrotation
    JOINT rThigh
    {
      OFFSET 0 -1.70687 -2.19456
      CHANNELS 3 Zrotation Xrotation Yrotation
      JOINT rShin
      {
        OFFSET 0 -36.8199 0.73152
        CHANNELS 3 Zrotation Xrotation Yrotation
        JOINT rFoot
        {
          OFFSET 0.73152 -45.1104 -5.12064
          CHANNELS 3 Zrotation Xrotation Yrotation
          End Site
          {
            OFFSET -1.1221 -3.69964 12.103
          }
        }
      }
    }
  }
  JOINT lButtock
  {
    OFFSET 8.77824 4.35084 1.2192
    CHANNELS 3 Zrotation Xrotation Yrotation
    JOINT lThigh
    {
      OFFSET 0 -1.70687 -2.19456
      CHANNELS 3 Zrotation Xrotation Yrotation
      JOINT lShin
      {
        OFFSET 0 -36.8199 0.73152
        CHANNELS 3 Zrotation Xrotation Yrotation
        JOINT lFoot
        {
          OFFSET -0.73152 -45.1104 -5.12064
          CHANNELS 3 Zrotation Xrotation Yrotation
          End Site
          {
            OFFSET 1.1221 -3.69964 12.103
          }
        }
      }
    }
  }
}
MOTION
Frames:	4
Frame Time:	0.03333
18.248800000000003 1.7952 37.8875 -65.715982 10.608261 110.704046 -165.012966 25.623804 -6.031441 152.568811 -10.801145 -66.681598 139.102543 -2.37968 -174.534606 -143.040702 -53.852399 56.174566 -163.211015 4.624925 30.60847 -75.239302 -23.646623 30.393701 -93.561513 56.021947 77.118765 156.704045 -88.286151 -65.791959 82.805537 4.181852 -113.705586 38.571959 -26.832411 179.227093 -34.718141 -8.346165 138.678808 -1.983891 -11.836084 -167.859531 -8.205324 -17.092877 -107.148743 -2.113706 -0.056029 144.360176 -152.757366 10.181121 42.524283 -16.59061 33.853662 -22.307304 102.098467 -10.939743 30.464929 84.605904 39.41681 -13.036041 177.667688 -66.678276 142.565649 86.492878 -81.318774 -97.415355 -61.842528 -16.833024 -70.923019 7.391901 10.060319 30.484887 132.560516 78.806404 103.152074 -175.628056 -12.864398 69.291781 -4.662444 -4.263279 13.093902 15.022431 17.045659 151.67286 -158.032939 34.211719 -63.282021 -91.850953 -77.773709 -156.461997 -154.839905 19.494412 -98.277182 -102.688854 14.60739 63.09816 90.255963 10.632607 -96.290372 -33.4808 75.594535 -161.856294 96.680865 46.644598 -17.260062 115.798858 -2.33657 -13.027514 -114.250079 11.3065 -114.200504 165.243316 -21.01438 64.779494 83.187494 -21.212074 -177.893743 161.98231 35.283937 108.30533 -99.814711 -0.944435 62.968911 42.411141 3.417085 -180.0 141.885677 -41.395504 -18.072674 -13.018284 -40.960128 -42.717146
18.5582 1.8329000000000002 38.634800000000006 -65.125826 10.438771 110.374073 -163.044614 22.532991 -108.091717 170.969334 31.572895 -167.202687 126.515264 -9.882037 -80.844168 -134.286747 19.632534 131.009475 -163.817159 4.544194 31.186744 -75.038536 -23.846709 30.752074 -18.814713 -5.59243 15.28296 -88.900734 -72.949074 86.85087 137.525691 73.490592 -66.044561 130.487518 -34.129689 -82.072252 -32.655305 72.788276 126.740839 158.019507 26.514244 -127.253327 -130.009628 25.299853 -159.515749 -174.763316 1.042113 -106.652357 143.183573 24.179087 75.198878 179.103371 72.196278 -173.447706 87.223012 9.990962 37.326987 -91.452239 -13.044469 164.171771 -61.688411 31.855844 128.354089 -89.784103 -73.610968 88.777703 -58.471942 -19.308726 -68.285509 -87.407476 62.750065 94.439087 164.778755 -25.627846 -28.367243 16.011697 31.754842 -150.74984 -2.492983 -1.085481 13.060973 -32.147738 1.992323 134.692189 144.141 17.720481 -18.428996 -160.117273 41.17513 -25.569644 -43.070653 -49.034286 -86.496278 167.582858 -21.32164 -42.696352 3.364858 -12.167032 -60.901539 169.866214 41.443088 -4.44715 103.515784 6.410911 -5.708102 -52.318999 -66.918741 -151.886585 -67.435755 -61.948029 -0.0 123.112905 -65.731388 -54.836071 -88.515503 11.590084 -49.123663 2.42862 -65.470964 -52.503308 -148.281363 71.766898 -180.0 -46.660895 5.320205 84.999578 125.122106 -12.563794 -83.681523 98.334701 -13.95009 16.494174
18.8777 1.8398999999999999 39.3818 -65.835207 10.89765 110.505346 -165.105829 25.667026 -0.0 154.069087 -13.672088 -63.81095 146.902149 -12.020946 93.826926 129.471105 -25.089376 -71.652033 -163.49325 4.574003 30.787222 -75.191208 -23.745117 30.543195 -105.872505 53.09639 88.761814 46.452998 0.769452 -179.338971 158.369813 74.140672 100.262098 16.430572 35.127064 147.548418 61.226615 -80.079845 -122.311868 89.138211 -60.256583 -128.706706 150.257868 52.807201 -123.836333 -178.714478 -44.280867 -105.981569 -149.192359 7.331008 41.272768 -21.792383 3.759558 -23.661877 75.563274 22.806631 46.633149 -100.231488 -16.70992 147.225997 -60.793632 32.132396 127.25842 151.277718 33.591099 76.880374 -86.681165 -23.072032 -73.158558 24.650201 4.584408 19.149254 -135.38173 -28.391296 47.637288 -35.310935 -66.773055 -168.64619 170.52417 -10.891348 -102.305834 -142.783705 -43.607308 108.621519 -126.09664 26.777714 -89.167977 38.54256 72.50625 86.248895 -34.359818 -50.336915 -81.437466 168.883102 -13.067647 -41.645145 99.193155 9.261238 -99.989433 -110.098014 86.162879 -83.346983 164.644133 -53.564496 57.879833 141.927287 -35.96434 -110.176222 -114.110106 11.817947 -113.966129 165.921364 -22.608722 163.748153 -72.40819 -48.321799 143.129067 -176.94257 -12.111077 -116.170588 -91.091694 34.650933 90.620761 3.693524 -6.986161 27.956648 161.476436 55.038144 -175.569962 57.100084 -18.350804 22.713831
19.2258 1.8159 40.1219 -66.989908 11.590447 110.940308 -166.730185 22.159461 120.569012 -152.931121 -11.330322 65.601008 137.199504 -2.911821 -163.06688 -135.533421 -47.476241 69.00441 -162.547589 4.674529 29.78269 -75.5134 -23.45315 30.007627 -33.079254 28.576418 21.554083 102.064817 65.437314 98.135958 5.435363 -41.791807 70.385822 139.86458 -23.12495 -71.173848 -34.712442 0.239282 137.495227 117.820351 32.188023 -70.454092 -176.331881 48.66301 -142.70185 12.290783 41.029734 -148.188194 37.994383 -28.200175 102.418057 154.534188 -53.363241 87.673657 89.448877 8.725173 38.462865 -99.368727 -52.912016 165.857016 -56.567733 32.845453 123.240914 6.198588 -53.588879 168.127914 -58.378542 -15.408803 -71.370828 -177.117232 0.106797 149.565045 62.795304 -76.342298 -55.823384 -179.571068 -3.157602 70.259196 -3.266665 -2.576568 11.625664 -78.291364 6.759827 113.009996 -126.91182 27.139801 -87.570392 22.739636 74.394598 101.374481 -19.870277 -50.440346 -72.62534 -36.969595 0.604102 -101.602177 3.089849 -12.490543 -62.721541 169.338517 39.844558 -3.41629 141.403417 -47.017969 34.955528 21.200258 -17.692821 -115.326015 -65.543328 39.064672 -180.0 -154.458155 -23.947844 -78.117839 41.263759 74.963135 -103.090225 166.197301 1.274671 139.653815 -159.64548 -29.78813 -13.580664 105.50615 51.086271 -22.690996 -137.435388 10.001889 -101.23575 115.519678 20.130071 132.661622
